<?xml version="1.0" encoding="UTF-8"?><svg xmlns="http://www.w3.org/2000/svg" xmlns:xlink="http://www.w3.org/1999/xlink" viewBox="0 0 128 128"><defs><style>.cls-1{fill:none;}.cls-2{fill:url(#radial-gradient);opacity:.3;}.cls-2,.cls-3{mix-blend-mode:multiply;}.cls-4{fill:url(#radial-gradient-2);}.cls-5{isolation:isolate;}.cls-3{fill:#0f0f0d;opacity:.2;}</style><radialGradient id="radial-gradient" cx="322.2841" cy="405.7418" fx="322.2841" fy="405.7418" r="68.9894" gradientTransform="translate(-44.2199 -179.8556) scale(.3356 .5572)" gradientUnits="userSpaceOnUse"><stop offset="0" stop-color="#000"/><stop offset=".7842" stop-color="#4f4f4f" stop-opacity="0"/></radialGradient><radialGradient id="radial-gradient-2" cx="313.1713" cy="380.0413" fx="313.1713" fy="380.0413" r="159.6501" gradientTransform="translate(-46.999 -102.0755) scale(.3539)" gradientUnits="userSpaceOnUse"><stop offset="0" stop-color="#f5f5f5"/><stop offset=".5036" stop-color="#f2f2f2"/></radialGradient></defs><g class="cls-5"><g id="Layer_2"><g id="Icon_macOS"><rect class="cls-1" width="128" height="128"/><path id="Key_Double_Shadow" class="cls-2" d="M43.0622,29.9746c-.0019.0137-.0038.027-.0058.0406-.0518.0097-.0526-.0026.0058-.0406ZM73.1463,55.5462l-.551,9.8444,6.5017,7.0832-6.5017,7.0832,4.2977,4.6821-4.2977,4.6821.551,9.764h-18.2929v-43.139c-7.2731-3.7217-12.232-11.7653-12.232-21.0094,0-1.5471.2166-2.9765.435-4.5215.789-.1487,13.5481-5.4962,13.5481-5.4962-.1059.578,14.8965.578,14.7906,0,0,0,12.3269,5.3041,13.5637,5.5642.3128,1.5189.4195,2.9293.4195,4.4534,0,9.2442-5.0691,17.2878-12.232,21.0095ZM84.9375,29.9746c.0077.0365.0138.0722.0213.1086.1354.0285.14-.0025-.0213-.1086Z"/><path id="Key_Drop_Shadow" class="cls-3" d="M42.6543,90.0228c-7.0698-6.1486-11.5457-15.2121-11.5457-25.3548,0-11.8019,6.172-22.696,16.3377-28.7786-.1815,1.1802-.3631,2.2696-.3631,3.4498,0,6.9903,4.0844,13.0729,10.0749,15.8872v31.8652l7.5335,7.5351,7.5335-7.5351-.4538-6.6272,3.5398-3.5406-3.5398-3.5406,5.3551-5.3563-5.3551-5.3563.4538-7.4443c5.8997-2.8143,10.0749-8.8968,10.0749-15.8872,0-1.1802-.0908-2.2696-.3631-3.4498,3.6888,2.227,6.8516,5.1011,9.3871,8.4266-6.1315-8.4206-16.0924-13.8991-27.3404-13.8991-18.6365,0-33.7443,15.0357-33.7443,33.5832,0,10.495,4.8383,19.8644,12.4149,26.0227ZM62.241,84.5497h-2.5414v-25.1472h2.5414v25.1472ZM58.6104,31.7133c1.9968-.3631,4.0844-.5447,6.0813-.5447,2.0876-.0908,4.0844.1815,6.0813.5447.0908.4539.1815.9078.1815,1.3617,0,3.4498-2.8137,6.2641-6.2628,6.2641s-6.2628-2.8143-6.2628-6.2641c0-.4539.0908-.9078.1815-1.3617Z"/><path id="Key" class="cls-4" d="M63.9999,24.1601c-21.9582,0-39.8225,17.8721-39.8225,39.8399s17.8643,39.8399,39.8225,39.8399,39.8223-17.8723,39.8223-39.8399-17.8641-39.8399-39.8223-39.8399ZM57.9186,31.0088c1.9968-.3631,4.0844-.5447,6.0813-.5447,2.0876-.0908,4.0844.1815,6.0813.5447.0908.4539.1815.9078.1815,1.3617,0,3.4498-2.8137,6.2641-6.2628,6.2641s-6.2628-2.8143-6.2628-6.2641c0-.4539.0908-.9078.1815-1.3617ZM61.5492,58.6979v25.1472h-2.5414v-25.1472h2.5414ZM63.9999,97.5535c-18.5161,0-33.5831-14.9794-33.5831-33.5901,0-11.8019,6.172-22.696,16.3377-28.7786-.1815,1.1802-.3631,2.2696-.3631,3.4498,0,6.9903,4.0844,13.0729,10.0749,15.8872v31.8652l7.5335,7.5351,7.5335-7.5351-.4538-6.6272,3.5398-3.5406-3.5398-3.5406,5.3551-5.3563-5.3551-5.3563.4538-7.4443c5.8997-2.8143,10.0749-8.8968,10.0749-15.8872,0-1.1802-.0908-2.2696-.3631-3.4498,10.0749,6.0826,16.247,16.9766,16.3377,28.7786,0,18.5199-14.9763,33.5901-33.5831,33.5901Z"/></g></g></g></svg>