<?xml version="1.0" encoding="UTF-8"?><svg xmlns="http://www.w3.org/2000/svg" xmlns:xlink="http://www.w3.org/1999/xlink" viewBox="0 0 128 128"><defs><style>.cls-1{fill:none;}.cls-2{fill:url(#radial-gradient-2);opacity:.44;}.cls-3{fill:#0f0f0d;opacity:.35;}.cls-4{fill:url(#linear-gradient-2);}.cls-5{fill:url(#linear-gradient);}.cls-6{isolation:isolate;}.cls-7{fill:url(#radial-gradient);mix-blend-mode:lighten;opacity:.32;}.cls-8{opacity:.6;}.cls-9{fill:rgba(15,15,13,.35);}</style><linearGradient id="linear-gradient" x1="63.9998" y1="20.4513" x2="63.9998" y2="107.5488" gradientUnits="userSpaceOnUse"><stop offset="0" stop-color="#000"/><stop offset="1" stop-color="#000" stop-opacity=".2"/></linearGradient><linearGradient id="linear-gradient-2" x1="63.9998" y1="15.9186" x2="63.9998" y2="102.9186" gradientUnits="userSpaceOnUse"><stop offset="0" stop-color="#414141"/><stop offset=".196" stop-color="#3e3e3e"/><stop offset="1" stop-color="#3a3a3a"/></linearGradient><radialGradient id="radial-gradient" cx="305.8904" cy="449.6754" fx="305.8904" fy="449.6754" r="148.0242" gradientTransform="translate(-46.999 -102.0755) scale(.3539)" gradientUnits="userSpaceOnUse"><stop offset=".6733" stop-color="#fcfcfc" stop-opacity="0"/><stop offset="1" stop-color="#fcfcfc"/></radialGradient><radialGradient id="radial-gradient-2" cx="311.8517" cy="469.1737" fx="311.8517" fy="469.1737" r="123.1352" gradientTransform="translate(-46.999 -102.0755) scale(.3539)" gradientUnits="userSpaceOnUse"><stop offset=".1088" stop-color="#0f0f0d" stop-opacity="0"/><stop offset=".8856" stop-color="#414141" stop-opacity="0"/><stop offset=".9339" stop-color="#1e1e1d" stop-opacity=".6841"/><stop offset=".9874" stop-color="#0f0f0d"/></radialGradient></defs><g class="cls-6"><g id="Layer_2"><g id="Icon_macOS"><rect class="cls-1" width="128" height="128"/><g id="Countour"><g class="cls-8"><path class="cls-5" d="M63.9999,20.8039c23.7037,0,42.9881,19.3777,42.9881,43.1962s-19.2844,43.1962-42.9881,43.1962-42.9882-19.3777-42.9882-43.1962S40.2961,20.8039,63.9999,20.8039M63.9999,20.4513c-23.8983,0-43.3408,19.5358-43.3408,43.5487s19.4425,43.5487,43.3408,43.5487,43.3406-19.536,43.3406-43.5487-19.4423-43.5487-43.3406-43.5487h0Z"/></g></g><path id="Rim" class="cls-4" d="M63.9999,107.5c-23.9861,0-43.5001-19.5141-43.5001-43.5S40.0138,20.5,63.9999,20.5s43.4999,19.5139,43.4999,43.5-19.5138,43.5-43.4999,43.5ZM63.9999,24.1601c-21.9582,0-39.8225,17.8721-39.8225,39.8399s17.8643,39.8399,39.8225,39.8399,39.8223-17.8723,39.8223-39.8399-17.8641-39.8399-39.8223-39.8399Z"/><path id="Bottom_Light" class="cls-7" d="M63.9999,20.517c-23.9767,0-43.4831,19.5063-43.4831,43.483s19.5064,43.483,43.4831,43.483,43.4829-19.5065,43.4829-43.483-19.5062-43.483-43.4829-43.483Z"/><path id="Inner_Shadow" class="cls-2" d="M63.9999,107.5c-23.9861,0-43.5001-19.5141-43.5001-43.5S40.0138,20.5,63.9999,20.5s43.4999,19.5139,43.4999,43.5-19.5138,43.5-43.4999,43.5ZM63.9999,24.1601c-21.9582,0-39.8225,17.8721-39.8225,39.8399s17.8643,39.8399,39.8225,39.8399,39.8223-17.8723,39.8223-39.8399-17.8641-39.8399-39.8223-39.8399Z"/><path id="Bottom_Drop_Shadow" class="cls-9" d="M63.9999,24.3931c-22.1274,0-40.1292,18.0018-40.1292,40.1291s18.0018,40.1291,40.1292,40.1291,40.129-18.002,40.129-40.1291-18.0017-40.1291-40.129-40.1291Z"/><path id="Top_Drop_Shadow" class="cls-3" d="M63.9999,107.5c-23.9861,0-43.5001-19.5141-43.5001-43.5S40.0138,20.5,63.9999,20.5s43.4999,19.5139,43.4999,43.5-19.5138,43.5-43.4999,43.5ZM63.9999,21.431c-23.986,0-43.5001,19.2544-43.5001,42.9213s19.5141,42.9213,43.5001,42.9213,43.4999-19.2546,43.4999-42.9213-19.5138-42.9213-43.4999-42.9213Z"/></g></g></g></svg>